<svg width="32" height="32" viewBox="0 0 32 32" fill="none" xmlns="http://www.w3.org/2000/svg">
<path d="M3.99902 6H9.99902V19H3.99902C3.73381 19 3.47945 18.8946 3.29192 18.7071C3.10438 18.5196 2.99902 18.2652 2.99902 18V7C2.99902 6.73478 3.10438 6.48043 3.29192 6.29289C3.47945 6.10536 3.73381 6 3.99902 6V6Z" stroke="white" stroke-width="2" stroke-linecap="round" stroke-linejoin="round"/>
<path d="M9.99902 19L14.999 29C15.5243 29 16.0445 28.8965 16.5298 28.6955C17.0151 28.4945 17.456 28.1999 17.8274 27.8284C18.1989 27.457 18.4935 27.016 18.6945 26.5307C18.8956 26.0454 18.999 25.5253 18.999 25V22H26.7335C27.017 22 27.2974 21.9397 27.5559 21.8231C27.8144 21.7065 28.0451 21.5362 28.2328 21.3236C28.4205 21.111 28.5608 20.8609 28.6445 20.59C28.7281 20.319 28.7532 20.0333 28.718 19.7519L27.218 7.75193C27.1576 7.26822 26.9225 6.82325 26.5571 6.50064C26.1916 6.17803 25.7209 6 25.2335 6H9.99902" stroke="white" stroke-width="2" stroke-linecap="round" stroke-linejoin="round"/>
</svg>
