<svg width="32" height="32" viewBox="0 0 32 32" fill="none" xmlns="http://www.w3.org/2000/svg">
<path d="M26.6144 3.21142C26.4952 3.11715 26.3557 3.05172 26.207 3.02021C26.0583 2.9887 25.9043 2.99198 25.757 3.02978L9.75701 7.02978C9.54062 7.08372 9.34849 7.20848 9.21117 7.38419C9.07385 7.55991 8.99924 7.7765 8.99919 7.99951V21.7615C8.16529 21.2046 7.16921 20.9424 6.16922 21.0165C5.16923 21.0906 4.22268 21.4967 3.47994 22.1704C2.7372 22.8441 2.24088 23.7466 2.06983 24.7346C1.89878 25.7227 2.06281 26.7395 2.53586 27.6237C3.00891 28.5078 3.76385 29.2085 4.68073 29.6145C5.59762 30.0204 6.62387 30.1083 7.59643 29.8642C8.569 29.6201 9.43211 29.058 10.0486 28.2672C10.6651 27.4764 10.9997 26.5022 10.9992 25.4995V13.7798L24.9992 10.2798V17.7615C24.1653 17.2046 23.1692 16.9424 22.1692 17.0165C21.1692 17.0906 20.2227 17.4967 19.4799 18.1704C18.7372 18.8441 18.2409 19.7466 18.0698 20.7346C17.8988 21.7227 18.0628 22.7395 18.5359 23.6237C19.0089 24.5078 19.7638 25.2085 20.6807 25.6145C21.5976 26.0204 22.6239 26.1083 23.5964 25.8642C24.569 25.6201 25.4321 25.058 26.0486 24.2672C26.6651 23.4764 26.9997 22.5022 26.9992 21.4995V3.99951C26.999 3.84757 26.9643 3.69766 26.8976 3.56113C26.831 3.42459 26.7341 3.30501 26.6144 3.21142Z" fill="white"/>
</svg>
