<svg width="32" height="32" viewBox="0 0 32 32" fill="none" xmlns="http://www.w3.org/2000/svg">
<path d="M3.99902 13H9.99902V26H3.99902C3.73381 26 3.47945 25.8946 3.29192 25.7071C3.10438 25.5196 2.99902 25.2652 2.99902 25V14C2.99902 13.7348 3.10438 13.4804 3.29192 13.2929C3.47945 13.1054 3.73381 13 3.99902 13V13Z" stroke="white" stroke-width="2" stroke-linecap="round" stroke-linejoin="round"/>
<path d="M9.99902 13L14.999 3C15.5243 3 16.0445 3.10346 16.5298 3.30448C17.0151 3.5055 17.456 3.80014 17.8274 4.17157C18.1989 4.54301 18.4935 4.98396 18.6945 5.46927C18.8956 5.95457 18.999 6.47471 18.999 7V10H26.7335C27.017 10 27.2974 10.0603 27.5559 10.1769C27.8144 10.2935 28.0451 10.4638 28.2328 10.6764C28.4205 10.889 28.5608 11.1391 28.6445 11.41C28.7281 11.681 28.7532 11.9667 28.718 12.2481L27.218 24.2481C27.1576 24.7318 26.9225 25.1767 26.5571 25.4994C26.1916 25.822 25.7209 26 25.2335 26H9.99902" stroke="white" stroke-width="2" stroke-linecap="round" stroke-linejoin="round"/>
</svg>
