<svg width="32" height="32" viewBox="0 0 32 32" fill="none" xmlns="http://www.w3.org/2000/svg">
<path d="M5.26074 6H26.7396C26.9334 6 27.1229 6.05627 27.2853 6.16198C27.4476 6.26769 27.5758 6.41828 27.6542 6.59545C27.7325 6.77262 27.7578 6.96874 27.7268 7.15997C27.6958 7.35121 27.6099 7.52932 27.4796 7.67267L19.2603 16.7139C19.0929 16.898 19.0002 17.1378 19.0002 17.3866V24.4648C19.0002 24.6294 18.9595 24.7915 18.8819 24.9367C18.8042 25.0818 18.6919 25.2055 18.5549 25.2969L14.5549 27.9635C14.4043 28.0639 14.2293 28.1216 14.0485 28.1303C13.8677 28.1391 13.6879 28.0986 13.5283 28.0132C13.3688 27.9278 13.2353 27.8006 13.1423 27.6454C13.0493 27.4901 13.0002 27.3125 13.0002 27.1315V17.3866C13.0002 17.1378 12.9075 16.898 12.7401 16.7139L4.5208 7.67267C4.39049 7.52932 4.30461 7.35121 4.27362 7.15997C4.24263 6.96874 4.26785 6.77262 4.34623 6.59545C4.4246 6.41828 4.55275 6.26769 4.7151 6.16198C4.87745 6.05627 5.06701 6 5.26074 6V6Z" stroke="white" stroke-width="2" stroke-linecap="round" stroke-linejoin="round"/>
</svg>
