<svg width="32" height="32" viewBox="0 0 32 32" fill="none" xmlns="http://www.w3.org/2000/svg">
<path d="M7.99963 17.5002C7.99964 17.6316 7.97378 17.7616 7.92353 17.8829C7.87328 18.0043 7.79962 18.1145 7.70676 18.2074C7.6139 18.3002 7.50366 18.3739 7.38233 18.4241C7.261 18.4744 7.13096 18.5002 6.99963 18.5002H6.99957L1.49939 18.4998C1.31363 18.4997 1.13154 18.448 0.973547 18.3503C0.815554 18.2526 0.687899 18.1128 0.604894 17.9466C0.521889 17.7804 0.486815 17.5944 0.503605 17.4094C0.520395 17.2244 0.588385 17.0477 0.699952 16.8992C1.58625 15.7117 2.76833 14.7773 4.12836 14.1891C3.54397 13.6549 3.09482 12.9895 2.81789 12.2478C2.54096 11.506 2.44417 10.7091 2.5355 9.92266C2.62682 9.1362 2.90365 8.38267 3.34318 7.72412C3.78271 7.06557 4.37238 6.52085 5.06363 6.13479C5.75489 5.74873 6.52795 5.53238 7.31918 5.50355C8.11041 5.47472 8.89717 5.63425 9.61468 5.96898C10.3322 6.30372 10.9599 6.8041 11.4462 7.42892C11.9325 8.05373 12.2634 8.78512 12.4117 9.56286C12.4501 9.76486 12.4253 9.97379 12.3406 10.1612C12.2559 10.3485 12.1156 10.5053 11.9386 10.61C10.3196 11.5677 9.08746 13.0625 8.45624 14.8345C8.153 15.6905 7.99857 16.5921 7.99963 17.5002ZM31.2996 16.8989C30.4133 15.7114 29.2312 14.777 27.8712 14.1888C28.4556 13.6547 28.9047 12.9893 29.1817 12.2476C29.4586 11.5058 29.5554 10.7089 29.4641 9.92245C29.3727 9.13599 29.0959 8.38247 28.6564 7.72392C28.2169 7.06538 27.6272 6.52064 26.936 6.13458C26.2447 5.74851 25.4717 5.53216 24.6805 5.50332C23.8892 5.47448 23.1025 5.63399 22.385 5.96871C21.6674 6.30343 21.0397 6.80379 20.5534 7.42859C20.0671 8.05339 19.7362 8.78476 19.5878 9.56249C19.5495 9.76449 19.5743 9.9734 19.659 10.1608C19.7436 10.3481 19.884 10.5049 20.0609 10.6096C21.6799 11.5674 22.9121 13.0622 23.5433 14.8342C23.8465 15.6902 24.001 16.5919 23.9999 17.5C23.9999 17.6313 24.0258 17.7614 24.076 17.8827C24.1263 18.004 24.2 18.1143 24.2928 18.2071C24.3857 18.3 24.496 18.3736 24.6173 18.4239C24.7386 18.4741 24.8687 18.5 25 18.5L30.5001 18.4995C30.6859 18.4995 30.868 18.4477 31.026 18.35C31.184 18.2523 31.3116 18.1125 31.3946 17.9463C31.4776 17.7801 31.5127 17.5941 31.4959 17.4091C31.4791 17.2241 31.4111 17.0474 31.2996 16.8989L31.2996 16.8989ZM19.6451 22.2612C20.6415 21.4991 21.374 20.4438 21.7395 19.2438C22.105 18.0438 22.0853 16.7594 21.6829 15.5712C21.2806 14.383 20.516 13.3508 19.4966 12.6197C18.4772 11.8886 17.2543 11.4954 15.9999 11.4954C14.7454 11.4954 13.5225 11.8886 12.5031 12.6197C11.4837 13.3508 10.7191 14.383 10.3168 15.5712C9.9145 16.7594 9.89472 18.0438 10.2603 19.2438C10.6258 20.4438 11.3583 21.4991 12.3547 22.2612C10.4078 23.1207 8.83051 24.6452 7.90527 26.5618C7.83096 26.7142 7.79665 26.8831 7.80555 27.0524C7.81446 27.2218 7.8663 27.3861 7.9562 27.5299C8.04609 27.6737 8.17109 27.7923 8.31944 27.8745C8.46778 27.9568 8.6346 27.9999 8.8042 27.9999H23.1956C23.3652 27.9999 23.532 27.9567 23.6803 27.8745C23.8286 27.7923 23.9536 27.6737 24.0435 27.5299C24.1334 27.3861 24.1852 27.2218 24.1942 27.0524C24.2031 26.8831 24.1688 26.7142 24.0945 26.5618C23.1692 24.6452 21.592 23.1207 19.6451 22.2612Z" fill="white"/>
</svg>
