<svg width="32" height="32" viewBox="0 0 32 32" fill="none" xmlns="http://www.w3.org/2000/svg">
<path d="M11 8H27" stroke="white" stroke-width="2" stroke-linecap="round" stroke-linejoin="round"/>
<path d="M11.001 16H27.0002" stroke="white" stroke-width="2" stroke-linecap="round" stroke-linejoin="round"/>
<path d="M11.001 24H27.0002" stroke="white" stroke-width="2" stroke-linecap="round" stroke-linejoin="round"/>
<path d="M6.9375 8C6.9375 8.79391 6.29391 9.4375 5.5 9.4375C4.70609 9.4375 4.0625 8.79391 4.0625 8C4.0625 7.20609 4.70609 6.5625 5.5 6.5625C6.29391 6.5625 6.9375 7.20609 6.9375 8Z" fill="white" stroke="white" stroke-width="0.125"/>
<path d="M6.9375 16C6.9375 16.7939 6.29391 17.4375 5.5 17.4375C4.70609 17.4375 4.0625 16.7939 4.0625 16C4.0625 15.2061 4.70609 14.5625 5.5 14.5625C6.29391 14.5625 6.9375 15.2061 6.9375 16Z" fill="white" stroke="white" stroke-width="0.125"/>
<path d="M6.9375 24C6.9375 24.7939 6.29391 25.4375 5.5 25.4375C4.70609 25.4375 4.0625 24.7939 4.0625 24C4.0625 23.2061 4.70609 22.5625 5.5 22.5625C6.29391 22.5625 6.9375 23.2061 6.9375 24Z" fill="white" stroke="white" stroke-width="0.125"/>
</svg>
